PathFileType	4	(X/Y/Z)	Kaydara	
DataRate	CameraRate	NumFrames	NumMarkers	Units	OrigDataRate	OrigDataStartFrame	OrigNumFrames	
240.00	240.00	4	72	mm	240.00	45	359	
Frame#	Time	Hips			RightUpLeg			RightLeg			RightFoot			RightFoot_End			LeftUpLeg			LeftLeg			LeftFoot			LeftFoot_End			Spine			Spine1			Spine2			Spine3			Neck			Head			Head_End			RightShoulder			RightArm			RightForeArm			RightHand			RightHandThumb1			RightHandThumb2			RightHandThumb3			RightHandThumb3_End			RightInHandIndex			RightHandIndex1			RightHandIndex2			RightHandIndex3			RightHandIndex3_End			RightInHandMiddle			RightHandMiddle1			RightHandMiddle2			RightHandMiddle3			RightHandMiddle3_End			RightInHandRing			RightHandRing1			RightHandRing2			RightHandRing3			RightHandRing3_End			RightInHandPinky			RightHandPinky1			RightHandPinky2			RightHandPinky3			RightHandPinky3_End			LeftShoulder			LeftArm			LeftForeArm			LeftHand			LeftHandThumb1			LeftHandThumb2			LeftHandThumb3			LeftHandThumb3_End			LeftInHandIndex			LeftHandIndex1			LeftHandIndex2			LeftHandIndex3			LeftHandIndex3_End			LeftInHandMiddle			LeftHandMiddle1			LeftHandMiddle2			LeftHandMiddle3			LeftHandMiddle3_End			LeftInHandRing			LeftHandRing1			LeftHandRing2			LeftHandRing3			LeftHandRing3_End			LeftInHandPinky			LeftHandPinky1			LeftHandPinky2			LeftHandPinky3			LeftHandPinky3_End			
		X1	Y1	Z1	X2	Y2	Z2	X3	Y3	Z3	X4	Y4	Z4	X5	Y5	Z5	X6	Y6	Z6	X7	Y7	Z7	X8	Y8	Z8	X9	Y9	Z9	X10	Y10	Z10	X11	Y11	Z11	X12	Y12	Z12	X13	Y13	Z13	X14	Y14	Z14	X15	Y15	Z15	X16	Y16	Z16	X17	Y17	Z17	X18	Y18	Z18	X19	Y19	Z19	X20	Y20	Z20	X21	Y21	Z21	X22	Y22	Z22	X23	Y23	Z23	X24	Y24	Z24	X25	Y25	Z25	X26	Y26	Z26	X27	Y27	Z27	X28	Y28	Z28	X29	Y29	Z29	X30	Y30	Z30	X31	Y31	Z31	X32	Y32	Z32	X33	Y33	Z33	X34	Y34	Z34	X35	Y35	Z35	X36	Y36	Z36	X37	Y37	Z37	X38	Y38	Z38	X39	Y39	Z39	X40	Y40	Z40	X41	Y41	Z41	X42	Y42	Z42	X43	Y43	Z43	X44	Y44	Z44	X45	Y45	Z45	X46	Y46	Z46	X47	Y47	Z47	X48	Y48	Z48	X49	Y49	Z49	X50	Y50	Z50	X51	Y51	Z51	X52	Y52	Z52	X53	Y53	Z53	X54	Y54	Z54	X55	Y55	Z55	X56	Y56	Z56	X57	Y57	Z57	X58	Y58	Z58	X59	Y59	Z59	X60	Y60	Z60	X61	Y61	Z61	X62	Y62	Z62	X63	Y63	Z63	X64	Y64	Z64	X65	Y65	Z65	X66	Y66	Z66	X67	Y67	Z67	X68	Y68	Z68	X69	Y69	Z69	X70	Y70	Z70	X71	Y71	Z71	X72	Y72	Z72	

45	0.183	1198.941	914.58397	126.699	1255.296786328405	898.1899522405515	53.45249500637226	1160.6958235536895	501.2252406720878	-41.35743537438205	1142.3225081068952	109.7155561125251	-116.87505187182349	990.5492314627891	32.834997754521716	-29.73923534325668	1157.232101880515	904.9447984338582	211.22105203995233	1066.3143442745463	503.09767308034645	286.5195015726694	995.2078994407512	78.68477176903308	378.7144270993069	873.4962592418957	-3.653929962043102	256.4612189326913	1130.7326309293594	1031.397190972634	79.66725934512507	1067.9053065457676	1087.4278812102268	31.069359574855053	999.5438686193637	1138.596545874727	-23.274573934488917	930.4328321518819	1175.7242093913608	-80.55764944830894	855.5182387066208	1215.92790868832	-140.08520815597788	785.6654704537102	1252.912409529158	-191.67197176209785	646.2826887706941	1330.4688384627198	-197.62178819060446	901.4485775803643	1204.887175508034	-144.7978342756042	964.3602454222793	1199.448626033843	-264.173030811901	1053.0857340739954	933.4659552012957	-308.7967611591362	1066.4530564883528	793.8609873968296	-518.7811945691072	1073.40488015345	803.2137552221083	-549.3666872584745	1055.5874450986726	805.0200639515057	-578.4447436239269	1042.9758080738159	803.1822044032713	-598.1819614520085	1032.287868154565	799.0017003197484	-614.1973742516421	1075.9060063295613	792.8068704292226	-550.8639510000766	1078.3663787736843	780.4387002002367	-595.7021345039477	1066.2275122866472	772.7262572276811	-624.0784033189796	1051.0528378235963	771.9039822858199	-637.106741313764	1033.3474719502526	773.9030001046742	-644.7785718182828	1074.6083196645895	784.8598763108624	-547.7743490054728	1076.3101211675503	768.4975394930868	-589.837798725531	1062.8676908595476	759.0743797918758	-620.2453211310908	1044.4656913812082	757.598951609702	-635.6964005461545	1025.0469601868735	759.5512477332476	-643.9609107333121	1073.7685197355213	779.5291464775732	-544.4816156726478	1074.9736902569225	760.144800224328	-579.4208150266314	1063.0521469862827	750.9280607172902	-605.2885099282506	1045.1930157612678	748.9719992854212	-619.8547531440778	1026.882894568569	750.555114609624	-627.4654985136737	1071.6280100632268	773.9938930530225	-539.1175675557231	1071.883677591607	752.6915787236817	-567.9861478628306	1062.0111079168446	743.8303805067062	-587.5558030863633	1048.8267753012717	741.68731223228	-597.6269723724786	1032.5161584282682	742.6774671075877	-604.0503079161256	859.2332584220201	1200.403341136786	-94.61689317728995	807.3594008604588	1129.0765300743074	7.839026140869353	956.3677026106984	972.9417305193645	-176.20310976900555	1061.8760602666382	859.7577944143826	-402.55273294600573	1091.9079890402704	870.7495066994084	-423.51958636262634	1132.1394531860558	862.8297630920728	-432.70617413825556	1159.2148576409122	854.0834744307668	-439.7129761072809	1180.9807774033866	844.0280731907424	-446.07544976325494	1090.4521885014126	861.1547850403063	-429.43684879692063	1134.249276407358	847.0655289468624	-464.9458422971403	1169.1887124656405	832.0315829431543	-479.99072695426474	1190.7278682216297	823.5398470379384	-480.78684851843093	1208.432581978306	817.0878554764446	-475.673630739255	1086.5783113335187	852.6089010444729	-429.3985740776136	1127.2000307597166	834.2456827704826	-464.01503727440155	1164.678272690765	816.7522123240026	-480.299696264644	1190.3536802499366	805.9849288981387	-481.1966708258953	1209.574762534547	798.6713863303524	-475.57100624106477	1082.681066224354	846.9599447122583	-428.57459637580155	1115.5780906848163	825.6844771722358	-459.20206606815947	1147.5187581990413	809.3532229624517	-473.20485366642464	1171.8994394377576	798.3917177956599	-473.96860327598296	1189.789525575138	791.242391760467	-468.6309828271552	1077.2570871484586	840.6275753475443	-425.7359833412654	1103.9569181246377	817.3033108128193	-452.4551937068523	1128.2588238366725	802.6274334503952	-463.23576400487127	1145.4254303909784	793.8588670152809	-463.58371831444725	1160.9181758722327	787.0807210236859	-458.73508723499845
46	0.188	1198.941	914.58397	126.699	1255.3064588955167	898.2004907411977	53.45463142252724	1160.6973773437717	501.23725135252334	-41.35388899115306	1142.3015884403605	109.72691318493465	-116.86704099951989	990.5299999433743	32.85027146793154	-29.724859847051658	1157.221826404065	904.9331477962809	211.21716281352596	1066.2943353897979	503.0878804762237	286.51361424280947	995.1828280864994	78.67705652393079	378.71638943012516	873.4720057408389	-3.6589422026952967	256.4605312706614	1130.7348526995338	1031.4016895956527	79.67491247503847	1067.916626004453	1087.4392135397982	31.073770715855694	999.5671484032625	1138.616317530852	-23.276533044686452	930.4713720204137	1175.7539876656156	-80.57106197492092	855.5720577603519	1215.9678217301735	-140.11052214857105	785.7319583142407	1252.9607237126174	-191.70790362574394	646.3400364028971	1330.5025190757772	-197.6501544107256	901.5059125437967	1204.9340245561368	-144.81453964400157	964.4676390214511	1199.5081670323716	-264.16123146974314	1053.2017501924408	933.5206335397779	-308.8664752339937	1066.493299009648	793.9694102871068	-518.5822113749648	1073.177582824994	803.1198737988708	-548.9743542548692	1055.2358757705822	804.8799081286259	-577.7203065287089	1042.569872203909	803.0384912226891	-597.2192391837464	1031.8641512058005	798.8795658872012	-613.0300177455157	1075.7615008449256	792.787819987758	-550.436990173326	1078.0935997871175	780.3718727365476	-594.8653756287008	1065.908288444149	772.6763498094739	-622.9127670248015	1050.711987038012	771.8724892262828	-635.7501599596353	1032.9936165958595	773.8920533347901	-643.273050207847	1074.557839378582	784.9228545466206	-547.3405448923396	1076.1853742453259	768.5582865753747	-589.0006108549857	1062.7051485137495	759.1646239035134	-619.0496334727222	1044.2832263479988	757.7167024753237	-634.2705260718564	1024.8532643144958	759.6940641612068	-642.3721540925615	1073.7874925944536	779.6509809717257	-544.0537573587553	1074.9856645482064	760.3147281963761	-578.6375178747952	1063.0444500183498	751.1349957527532	-604.1937623582488	1045.1731725164975	749.2114640192277	-618.538505513226	1026.8558229062915	750.820997158034	-625.9963683186594	1071.7327249730906	774.1875405229965	-538.705939224088	1072.0339421897784	752.9724876423378	-567.2594610829605	1062.1663693326261	744.1583351399291	-586.5828378852154	1048.983212228115	742.0474213553128	-596.4939564228998	1032.6719731776168	743.0658160442358	-602.7827292128352	859.2729981660997	1200.429194438493	-94.64277966209845	807.4100247219055	1129.1789951714957	7.834476097988247	955.9802883331934	972.6617964159227	-175.75610431428234	1061.62831533554	859.6257576410168	-402.2078287319816	1091.670047310865	870.5898289637929	-423.1467192309998	1131.9227402662254	862.6483053014296	-432.33396740582475	1159.0149856224111	853.8923852813379	-439.3461302971238	1180.7966924220957	843.8336730325084	-445.7172596192389	1090.2222075537338	861.0132659988334	-429.07731138010314	1134.055168825158	846.9262096842218	-464.58941795881935	1169.0209548797854	831.8890932492935	-479.6454586676878	1190.5727912345053	823.3881339783713	-480.4492079428496	1208.2855175457205	816.923634178836	-475.3427929412634	1086.3527290284019	852.4821153747089	-429.05269328097785	1127.0118021535034	834.1290172560645	-463.679576061055	1164.5192562938562	816.6340200489016	-479.9782109070688	1190.210191304359	805.8565473519429	-480.8852579872877	1209.4401457979154	798.5297509192192	-475.2674453023605	1082.457658569203	846.8435970370791	-428.23822313354674	1115.390082751103	825.58650513138	-458.88311137864713	1147.3566359309268	809.2558823839677	-472.89990462653634	1171.752520147004	798.2855927322097	-473.6743504104405	1189.6510526250188	791.1242837317719	-468.34456798378295	1077.0351153257848	840.5225332395923	-425.41093858281783	1103.7683347349591	817.2223748569056	-452.15291258098995	1128.0914492065667	802.5499732744164	-462.94748336814496	1145.2693859143967	793.7764291165494	-463.3045756772177	1160.7697568588655	786.9885148881165	-458.4636664373329
47	0.192	1198.941	914.58397	126.699	1255.3130132643037	898.2123654069678	53.4543378665317	1160.7028916746349	501.24987870221224	-41.35666733399291	1142.279054602163	109.73972045359127	-116.8687610644777	990.5064485982238	32.86987386739149	-29.722356199026976	1157.2156507157342	904.9203112544693	211.2149021767837	1066.2807189665027	503.0774566677242	286.51534993899276	995.1624467838974	78.6737972611598	378.7501278691408	873.4490860198907	-3.6630463023913973	256.4973431885742	1130.7328744620736	1031.4054191554972	79.68632281689727	1067.9205015155358	1087.4479909766187	31.08400061645903	999.5798805860026	1138.6318730056737	-23.270347618713533	930.4967295474739	1175.778290197904	-80.57388186179863	855.6099430765433	1216.0009025363895	-140.1225890158893	785.7801235649631	1253.0009894191758	-191.72813973288996	646.3785742062958	1330.5277282545806	-197.6602500801286	901.5463719614148	1204.9728053989716	-144.81943188484766	964.5581891987085	1199.5602408576347	-264.1367426042772	1053.2795560943973	933.5708314484777	-308.9135094771535	1066.57324299557	794.1541909850475	-518.780371551539	1073.8869845274676	803.8926541322702	-549.6811284207078	1056.2035052054118	805.8503110152526	-579.3249088860919	1043.6463651297959	804.0724756185937	-599.4812859679143	1032.970695762017	799.9032031361583	-615.8677036357974	1076.2983554130176	793.3732700332307	-551.286797595204	1078.9612958860125	781.1903515161127	-596.9129942698819	1066.8776683911335	773.5279187437676	-625.8956694652871	1051.7061349525034	772.7160087220271	-639.251194102862	1033.9823285761704	774.7096179242496	-647.1602137497449	1074.8840678874394	785.2926615613345	-548.2410754064488	1076.7204092578577	769.0387725217138	-591.096848710917	1063.322109691244	759.651850920636	-622.1693884041484	1044.9161388775406	758.1801330471585	-638.016781900141	1025.4734554965582	760.1222372211254	-646.5415827237409	1073.95737788497	779.8633610880124	-544.9589665061108	1075.20962245515	760.4922100235284	-580.6166817529253	1063.3098052366145	751.2881434612965	-607.0661400625772	1045.4379799757037	749.3256103430509	-622.0157854167005	1027.1011239183626	750.8943991775442	-629.8718204186159	1071.7056817187984	774.2048525109288	-539.5864388403488	1071.9382447754097	752.8405286012677	-569.1081686742466	1062.0567767185685	743.9599175942291	-589.1438759590061	1048.8504506736735	741.7978429702146	-599.4948013974409	1032.5088369749287	742.7670712961589	-606.1354713339338	859.2996665822219	1200.4504472233127	-94.65578702150734	807.4018514135096	1129.2142673998771	7.810702986911988	956.9455780287466	973.8378519250509	-177.49572573425232	1062.7079838938168	860.9324853214407	-404.02656589344446	1092.8031633793041	871.9264609291505	-424.93298739563585	1133.0898198848486	863.9769826054488	-434.0986209751711	1160.2022795459034	855.2150719745703	-441.1055200771905	1181.9979209031842	845.1509876545211	-447.4806389873985	1091.3497064143633	862.3553335117348	-430.8974992348869	1135.235494922151	848.3021492138561	-466.44030748477184	1170.228735963908	833.2657912008094	-481.5080443195461	1191.7911996997527	824.7505267167004	-482.3033958542714	1209.50840129068	818.2642051396992	-477.17945700719287	1087.4686244912095	853.8207135401544	-430.89797811297865	1128.172963394583	835.4987832284403	-465.5683869852144	1165.708654982364	818.004024296616	-481.88298002875405	1191.4115963783809	807.2089918379153	-482.78142571640973	1210.646043180042	799.8581839455597	-477.14519880666563	1083.5641042281852	848.1791150440843	-430.10063049809474	1116.529129037459	826.9479765024272	-460.7998734948421	1148.5184642565007	810.6168984355935	-474.83377561645244	1172.9249607019456	799.6293217982679	-475.60162713005263	1190.827250098744	792.4452784685885	-470.25532780385356	1078.1284788872795	841.8516777755178	-427.29086060501896	1104.8838185563238	818.5721735729321	-454.09405549043055	1129.222204785934	803.8982700559548	-464.90707786865016	1146.4064318919611	795.1115700388118	-465.2616561213762	1161.9093026052294	788.3031836616267	-460.407443154691
48	0.196	1198.941	914.58397	126.699	1255.3211854483916	898.2207796360583	53.45622532539881	1160.714350710616	501.25876289604236	-41.36030961504352	1142.270152614195	109.74893657502538	-116.87304915656863	990.4974595541877	32.88146957283756	-29.72475583001836	1157.206654955371	904.910794975173	211.21154155893865	1066.2680278238477	503.067196158633	286.50318603664095	995.1389533757855	78.66672801829355	378.74606420702213	873.4264231674802	-3.666180998700004	256.4897775838199	1130.7361749385295	1031.4099841756952	79.69272516151999	1067.932101980681	1087.4572559236383	31.08582209463677	999.6030254373413	1138.6478236854493	-23.27598453915211	930.5352091411517	1175.803321608311	-80.59164776815832	855.6636697007194	1216.0349076610946	-140.1529862628006	785.8464127011202	1253.0422187037893	-191.76985352463146	646.4354719604116	1330.551335645908	-197.7133999623168	901.602511910528	1205.011810823203	-144.84070128394262	964.6787808143082	1199.6287796004676	-264.12945696696056	1053.3873648458612	933.6407762668889	-308.9740153572267	1066.9043619544561	794.5676379780457	-520.0070509192013	1074.5514771532164	804.6872859985486	-551.0768886553699	1057.0484749101743	806.8618096055344	-581.1569362184915	1044.5842168067002	805.1965231146487	-601.6491123948996	1033.9579014080596	801.0881408285477	-618.3428237052244	1076.885783003478	794.0748942577208	-552.7999132198546	1079.7755067766752	782.1463827425525	-599.0380080857809	1067.7963963738284	774.6076586190122	-628.5149321026569	1052.669715016568	773.8549992872828	-642.1417543193237	1034.9694646484165	775.885733395088	-650.2510592979328	1075.3718130829361	785.878213141509	-549.823132658055	1077.3754495315497	769.8096945526133	-593.3130004107388	1064.0772468244325	760.5415676595888	-624.9320578364091	1045.7187017841918	759.1335483164509	-641.1102318993647	1026.2985421156834	761.112498405165	-649.8558698028339	1074.3692922909167	780.3607575676162	-546.5737572128553	1075.706720372886	761.0801997303763	-582.8270893631201	1063.879617653532	751.9628109812777	-609.7592607002001	1046.0458184625018	750.0527704142329	-625.0313476998379	1027.726485850326	751.6519542250307	-633.096622011402	1072.0206858233878	774.5905884540759	-541.2240922587581	1072.2729554399507	753.2417512884381	-571.3051975591503	1062.426664771575	744.4038425891838	-591.734770881735	1049.23693975446	742.2671360304148	-602.3244254706125	1032.9044251544742	743.2558496195026	-609.1524946345208	859.3404976713691	1200.4731657942905	-94.68684723034688	807.3217460556268	1129.1032014141745	7.6994500859207955	957.2261868945885	974.3498960436322	-178.48106125026692	1062.9735669594452	861.6106683199966	-405.20657856204997	1093.1036677156806	872.6435329972148	-426.0905081661431	1133.4135442192191	864.6802361866627	-435.25307828203756	1160.5390930978124	855.9069861682245	-442.2686286104827	1182.3430002108237	845.831977740788	-448.66019244174464	1091.643077030197	863.0752871012228	-432.09309771460596	1135.556749160799	849.0557447438805	-467.6933530496075	1170.5654859686974	834.0134660391731	-482.79321004558625	1192.1358134151349	825.4771976202093	-483.59097283075545	1209.8582994456206	818.96181847156	-478.45718364261506	1087.7524567614512	854.5334166333713	-432.1205497732847	1128.4788224331392	836.2403864671811	-466.86156898348213	1166.0300715688466	818.7380591831569	-483.2145790024697	1191.7418356092612	807.9171686500102	-484.11754538426186	1210.9817619508713	800.5343077616682	-478.47132464304246	1083.8404966746366	848.8861315576015	-431.3409425856786	1116.818882925452	827.6768239488417	-462.1193589243291	1148.8203700684685	811.3379568602124	-476.1900599940246	1173.234630397808	800.3248218105375	-476.96403247573716	1191.1417119404052	793.1103331843075	-471.6091827763331	1078.3953085947546	842.5488481952298	-428.5486893703193	1105.1571001583188	819.2842938535393	-455.43587026342425	1129.50293517864	804.6022307678643	-466.2831943968231	1146.6917302329584	795.7959406018164	-466.64458455546793	1162.1982037073913	788.9600611824465	-461.78413423730666
